<svg id="Layer_1" data-name="Layer 1" xmlns="http://www.w3.org/2000/svg" xmlns:xlink="http://www.w3.org/1999/xlink" viewBox="0 0 111.16 112.39"><defs><style>.cls-1{fill:url(#linear-gradient);}.cls-2{fill:url(#linear-gradient-2);}</style><linearGradient id="linear-gradient" x1="660.12" y1="-186.92" x2="769.14" y2="-280.72" gradientTransform="matrix(0.56, 0, 0, -0.57, 20.04, -34.24)" gradientUnits="userSpaceOnUse"><stop offset="0" stop-color="#5a9fd4"/><stop offset="1" stop-color="#306998"/></linearGradient><linearGradient id="linear-gradient-2" x1="811.29" y1="-337.49" x2="772.36" y2="-282.41" gradientTransform="matrix(0.56, 0, 0, -0.57, 20.04, -34.24)" gradientUnits="userSpaceOnUse"><stop offset="0" stop-color="#ffd43b"/><stop offset="1" stop-color="#ffe873"/></linearGradient></defs><path id="path1948" class="cls-1" d="M449,68.72a77.62,77.62,0,0,0-12.81,1.1c-11.35,2-13.41,6.2-13.41,13.94V94h26.81v3.41H412.75c-7.79,0-14.62,4.68-16.75,13.59-2.46,10.22-2.57,16.59,0,27.25,1.9,7.94,6.46,13.6,14.25,13.6h9.22V139.57a17,17,0,0,1,16.75-16.66H463a13.51,13.51,0,0,0,13.41-13.62V83.76c0-7.27-6.13-12.73-13.41-13.94A83.51,83.51,0,0,0,449,68.72Zm-14.5,8.22a5.11,5.11,0,1,1-5,5.13A5.09,5.09,0,0,1,434.53,76.94Z" transform="translate(-394.11 -68.72)"/><path id="path1950" class="cls-2" d="M479.75,97.38v11.91c0,9.23-7.83,17-16.75,17H436.22a13.67,13.67,0,0,0-13.41,13.62v25.53c0,7.27,6.32,11.54,13.41,13.63a45,45,0,0,0,26.78,0c6.75-2,13.41-5.89,13.41-13.63V155.22H449.62v-3.4h40.19c7.79,0,10.7-5.44,13.41-13.6,2.8-8.4,2.68-16.47,0-27.25-1.93-7.75-5.61-13.59-13.41-13.59ZM464.69,162a5.11,5.11,0,1,1-5,5.09A5.05,5.05,0,0,1,464.69,162Z" transform="translate(-394.11 -68.72)"/></svg>
